<mxfile host="Electron" agent="Mozilla/5.0 (X11; Linux x86_64) AppleWebKit/537.36 (KHTML, like Gecko) draw.io/24.7.8 Chrome/128.0.6613.36 Electron/32.0.1 Safari/537.36" version="24.7.8">
  <diagram name="Page-1" id="4URgWawFsGP6KK6KvxNF">
    <mxGraphModel dx="3587" dy="2044" grid="1" gridSize="10" guides="1" tooltips="1" connect="1" arrows="1" fold="1" page="0" pageScale="1" pageWidth="850" pageHeight="1100" math="0" shadow="0">
      <root>
        <mxCell id="0" />
        <mxCell id="1" parent="0" />
        <mxCell id="O607Qj2WlMJlW49EHXap-21" value="" style="rounded=0;whiteSpace=wrap;html=1;fillColor=#eeeeee;strokeColor=#36393d;" parent="1" vertex="1">
          <mxGeometry x="-200" y="50" width="710" height="820" as="geometry" />
        </mxCell>
        <mxCell id="O607Qj2WlMJlW49EHXap-1" value="" style="rounded=0;whiteSpace=wrap;html=1;fillColor=#cce5ff;strokeColor=#36393d;" parent="1" vertex="1">
          <mxGeometry x="-180" y="90" width="430" height="760" as="geometry" />
        </mxCell>
        <mxCell id="O607Qj2WlMJlW49EHXap-2" value="div" style="text;strokeColor=none;fillColor=none;html=1;align=center;verticalAlign=middle;whiteSpace=wrap;rounded=0;fontSize=16;" parent="1" vertex="1">
          <mxGeometry x="-180" y="90" width="60" height="30" as="geometry" />
        </mxCell>
        <mxCell id="O607Qj2WlMJlW49EHXap-3" value="" style="rounded=0;whiteSpace=wrap;html=1;fillColor=#cdeb8b;strokeColor=#36393d;" parent="1" vertex="1">
          <mxGeometry x="-160" y="120" width="390" height="170" as="geometry" />
        </mxCell>
        <mxCell id="O607Qj2WlMJlW49EHXap-4" value="&lt;b&gt;div&lt;/b&gt;" style="text;strokeColor=none;fillColor=none;html=1;align=center;verticalAlign=middle;whiteSpace=wrap;rounded=0;fontSize=16;" parent="1" vertex="1">
          <mxGeometry x="-160" y="120" width="60" height="30" as="geometry" />
        </mxCell>
        <mxCell id="n8XnSLK7DUbdd084pU-v-1" style="edgeStyle=orthogonalEdgeStyle;rounded=0;orthogonalLoop=1;jettySize=auto;html=1;exitX=1;exitY=0.5;exitDx=0;exitDy=0;entryX=0;entryY=0.5;entryDx=0;entryDy=0;fontSize=12;startSize=8;endSize=8;curved=1;" edge="1" parent="1" source="O607Qj2WlMJlW49EHXap-5" target="O607Qj2WlMJlW49EHXap-25">
          <mxGeometry relative="1" as="geometry" />
        </mxCell>
        <mxCell id="O607Qj2WlMJlW49EHXap-5" value="table" style="rounded=0;whiteSpace=wrap;html=1;" parent="1" vertex="1">
          <mxGeometry x="-140" y="160" width="350" height="50" as="geometry" />
        </mxCell>
        <mxCell id="O607Qj2WlMJlW49EHXap-6" value="&lt;b&gt;button&lt;/b&gt;" style="text;strokeColor=none;fillColor=none;html=1;align=center;verticalAlign=middle;whiteSpace=wrap;rounded=0;fontSize=16;" parent="1" vertex="1">
          <mxGeometry x="-135" y="161" width="60" height="30" as="geometry" />
        </mxCell>
        <mxCell id="n8XnSLK7DUbdd084pU-v-2" style="edgeStyle=orthogonalEdgeStyle;curved=1;rounded=0;orthogonalLoop=1;jettySize=auto;html=1;exitX=1;exitY=0.5;exitDx=0;exitDy=0;entryX=0;entryY=0.75;entryDx=0;entryDy=0;fontSize=12;startSize=8;endSize=8;" edge="1" parent="1" source="O607Qj2WlMJlW49EHXap-8" target="O607Qj2WlMJlW49EHXap-25">
          <mxGeometry relative="1" as="geometry" />
        </mxCell>
        <mxCell id="O607Qj2WlMJlW49EHXap-8" value="card" style="rounded=0;whiteSpace=wrap;html=1;" parent="1" vertex="1">
          <mxGeometry x="-140" y="220" width="350" height="50" as="geometry" />
        </mxCell>
        <mxCell id="O607Qj2WlMJlW49EHXap-9" value="&lt;b&gt;button&lt;/b&gt;" style="text;strokeColor=none;fillColor=none;html=1;align=center;verticalAlign=middle;whiteSpace=wrap;rounded=0;fontSize=16;" parent="1" vertex="1">
          <mxGeometry x="-135" y="220" width="60" height="30" as="geometry" />
        </mxCell>
        <mxCell id="O607Qj2WlMJlW49EHXap-10" value="" style="rounded=0;whiteSpace=wrap;html=1;fillColor=#ffe6cc;strokeColor=#d79b00;" parent="1" vertex="1">
          <mxGeometry x="-160" y="310" width="390" height="280" as="geometry" />
        </mxCell>
        <mxCell id="O607Qj2WlMJlW49EHXap-11" value="&lt;b&gt;div&lt;/b&gt;" style="text;strokeColor=none;fillColor=none;html=1;align=center;verticalAlign=middle;whiteSpace=wrap;rounded=0;fontSize=16;" parent="1" vertex="1">
          <mxGeometry x="-160" y="310" width="60" height="30" as="geometry" />
        </mxCell>
        <mxCell id="O607Qj2WlMJlW49EHXap-12" value="Book List" style="rounded=0;whiteSpace=wrap;html=1;" parent="1" vertex="1">
          <mxGeometry x="-140" y="350" width="350" height="50" as="geometry" />
        </mxCell>
        <mxCell id="O607Qj2WlMJlW49EHXap-13" value="&lt;b&gt;h1&lt;/b&gt;" style="text;strokeColor=none;fillColor=none;html=1;align=center;verticalAlign=middle;whiteSpace=wrap;rounded=0;fontSize=16;" parent="1" vertex="1">
          <mxGeometry x="-146" y="351" width="60" height="30" as="geometry" />
        </mxCell>
        <mxCell id="O607Qj2WlMJlW49EHXap-14" value="" style="rounded=0;whiteSpace=wrap;html=1;" parent="1" vertex="1">
          <mxGeometry x="-140" y="430" width="350" height="140" as="geometry" />
        </mxCell>
        <mxCell id="O607Qj2WlMJlW49EHXap-15" value="&lt;b&gt;Link&lt;/b&gt;" style="text;strokeColor=none;fillColor=none;html=1;align=center;verticalAlign=middle;whiteSpace=wrap;rounded=0;fontSize=16;" parent="1" vertex="1">
          <mxGeometry x="-140" y="430" width="60" height="30" as="geometry" />
        </mxCell>
        <mxCell id="O607Qj2WlMJlW49EHXap-16" value="+" style="rounded=0;whiteSpace=wrap;html=1;" parent="1" vertex="1">
          <mxGeometry x="-120" y="470" width="310" height="80" as="geometry" />
        </mxCell>
        <mxCell id="O607Qj2WlMJlW49EHXap-17" value="MdOutlineAddBox" style="text;strokeColor=none;fillColor=none;html=1;align=center;verticalAlign=middle;whiteSpace=wrap;rounded=0;fontSize=16;" parent="1" vertex="1">
          <mxGeometry x="-120" y="470" width="150" height="30" as="geometry" />
        </mxCell>
        <mxCell id="O607Qj2WlMJlW49EHXap-22" value="&lt;b&gt;home&lt;/b&gt;" style="text;strokeColor=none;fillColor=none;html=1;align=center;verticalAlign=middle;whiteSpace=wrap;rounded=0;fontSize=16;" parent="1" vertex="1">
          <mxGeometry x="-200" y="50" width="60" height="30" as="geometry" />
        </mxCell>
        <mxCell id="O607Qj2WlMJlW49EHXap-23" value="&lt;font style=&quot;font-size: 18px;&quot;&gt;books&lt;/font&gt;" style="rounded=0;whiteSpace=wrap;html=1;fillColor=#fff2cc;strokeColor=#d6b656;" parent="1" vertex="1">
          <mxGeometry x="330" y="285" width="160" height="80" as="geometry" />
        </mxCell>
        <mxCell id="O607Qj2WlMJlW49EHXap-24" value="&lt;font style=&quot;font-size: 18px;&quot;&gt;loading&lt;/font&gt;" style="rounded=0;whiteSpace=wrap;html=1;fillColor=#fff2cc;strokeColor=#d6b656;" parent="1" vertex="1">
          <mxGeometry x="330" y="190" width="160" height="80" as="geometry" />
        </mxCell>
        <mxCell id="O607Qj2WlMJlW49EHXap-25" value="&lt;font style=&quot;font-size: 18px;&quot;&gt;showType&lt;/font&gt;" style="rounded=0;whiteSpace=wrap;html=1;fillColor=#fff2cc;strokeColor=#d6b656;" parent="1" vertex="1">
          <mxGeometry x="330" y="95" width="160" height="80" as="geometry" />
        </mxCell>
        <mxCell id="n8XnSLK7DUbdd084pU-v-3" value="&lt;i&gt;/books/create&lt;/i&gt;" style="text;strokeColor=none;fillColor=none;html=1;align=center;verticalAlign=middle;whiteSpace=wrap;rounded=0;fontSize=16;" vertex="1" parent="1">
          <mxGeometry x="-80" y="425" width="150" height="40" as="geometry" />
        </mxCell>
        <mxCell id="n8XnSLK7DUbdd084pU-v-12" style="edgeStyle=orthogonalEdgeStyle;curved=1;rounded=0;orthogonalLoop=1;jettySize=auto;html=1;exitX=1;exitY=0.5;exitDx=0;exitDy=0;entryX=0;entryY=0.5;entryDx=0;entryDy=0;fontSize=12;startSize=8;endSize=8;" edge="1" parent="1" source="n8XnSLK7DUbdd084pU-v-6" target="O607Qj2WlMJlW49EHXap-24">
          <mxGeometry relative="1" as="geometry" />
        </mxCell>
        <mxCell id="n8XnSLK7DUbdd084pU-v-6" value="" style="rounded=0;whiteSpace=wrap;html=1;fillColor=#ffcccc;strokeColor=#36393d;dashed=1;" vertex="1" parent="1">
          <mxGeometry x="-160" y="610" width="390" height="60" as="geometry" />
        </mxCell>
        <mxCell id="n8XnSLK7DUbdd084pU-v-7" value="Spinner" style="text;strokeColor=none;fillColor=none;html=1;align=center;verticalAlign=middle;whiteSpace=wrap;rounded=0;fontSize=16;" vertex="1" parent="1">
          <mxGeometry x="-150" y="610" width="60" height="30" as="geometry" />
        </mxCell>
        <mxCell id="n8XnSLK7DUbdd084pU-v-8" value="" style="rounded=0;whiteSpace=wrap;html=1;fillColor=#ffcccc;strokeColor=#36393d;dashed=1;" vertex="1" parent="1">
          <mxGeometry x="-160" y="690" width="390" height="60" as="geometry" />
        </mxCell>
        <mxCell id="n8XnSLK7DUbdd084pU-v-9" value="BooksTable" style="text;strokeColor=none;fillColor=none;html=1;align=center;verticalAlign=middle;whiteSpace=wrap;rounded=0;fontSize=16;" vertex="1" parent="1">
          <mxGeometry x="-137" y="690" width="60" height="30" as="geometry" />
        </mxCell>
        <mxCell id="n8XnSLK7DUbdd084pU-v-10" value="" style="rounded=0;whiteSpace=wrap;html=1;fillColor=#ffcccc;strokeColor=#36393d;dashed=1;" vertex="1" parent="1">
          <mxGeometry x="-160" y="770" width="390" height="60" as="geometry" />
        </mxCell>
        <mxCell id="n8XnSLK7DUbdd084pU-v-11" value="BooksCard" style="text;strokeColor=none;fillColor=none;html=1;align=center;verticalAlign=middle;whiteSpace=wrap;rounded=0;fontSize=16;" vertex="1" parent="1">
          <mxGeometry x="-141" y="770" width="60" height="30" as="geometry" />
        </mxCell>
        <mxCell id="n8XnSLK7DUbdd084pU-v-15" style="edgeStyle=orthogonalEdgeStyle;curved=1;rounded=0;orthogonalLoop=1;jettySize=auto;html=1;exitX=0.75;exitY=1;exitDx=0;exitDy=0;entryX=0.5;entryY=1;entryDx=0;entryDy=0;fontSize=12;startSize=8;endSize=8;" edge="1" parent="1" source="n8XnSLK7DUbdd084pU-v-13" target="O607Qj2WlMJlW49EHXap-23">
          <mxGeometry relative="1" as="geometry" />
        </mxCell>
        <mxCell id="n8XnSLK7DUbdd084pU-v-13" value="{ books: &lt;b&gt;books&lt;/b&gt; }" style="text;strokeColor=none;fillColor=none;html=1;align=center;verticalAlign=middle;whiteSpace=wrap;rounded=0;fontSize=16;" vertex="1" parent="1">
          <mxGeometry x="70" y="690" width="160" height="30" as="geometry" />
        </mxCell>
        <mxCell id="n8XnSLK7DUbdd084pU-v-14" value="{ books: &lt;b&gt;books&lt;/b&gt; }" style="text;strokeColor=none;fillColor=none;html=1;align=center;verticalAlign=middle;whiteSpace=wrap;rounded=0;fontSize=16;" vertex="1" parent="1">
          <mxGeometry x="70" y="770" width="160" height="30" as="geometry" />
        </mxCell>
        <mxCell id="n8XnSLK7DUbdd084pU-v-16" style="edgeStyle=orthogonalEdgeStyle;curved=1;rounded=0;orthogonalLoop=1;jettySize=auto;html=1;exitX=0.75;exitY=1;exitDx=0;exitDy=0;entryX=0.7;entryY=1;entryDx=0;entryDy=0;entryPerimeter=0;fontSize=12;startSize=8;endSize=8;" edge="1" parent="1" source="n8XnSLK7DUbdd084pU-v-14" target="O607Qj2WlMJlW49EHXap-23">
          <mxGeometry relative="1" as="geometry" />
        </mxCell>
        <mxCell id="n8XnSLK7DUbdd084pU-v-17" value="" style="rounded=0;whiteSpace=wrap;html=1;fillColor=#eeeeee;strokeColor=#36393d;" vertex="1" parent="1">
          <mxGeometry x="-190" y="990" width="730" height="1170" as="geometry" />
        </mxCell>
        <mxCell id="n8XnSLK7DUbdd084pU-v-18" value="&lt;b&gt;BooksTable&lt;/b&gt;" style="text;strokeColor=none;fillColor=none;html=1;align=center;verticalAlign=middle;whiteSpace=wrap;rounded=0;fontSize=16;" vertex="1" parent="1">
          <mxGeometry x="-160" y="1000" width="60" height="30" as="geometry" />
        </mxCell>
        <mxCell id="n8XnSLK7DUbdd084pU-v-19" value="{ books: &lt;b&gt;books&lt;/b&gt; }" style="text;strokeColor=none;fillColor=none;html=1;align=center;verticalAlign=middle;whiteSpace=wrap;rounded=0;fontSize=16;" vertex="1" parent="1">
          <mxGeometry x="50" y="1000" width="160" height="30" as="geometry" />
        </mxCell>
        <mxCell id="n8XnSLK7DUbdd084pU-v-35" value="" style="rounded=0;whiteSpace=wrap;html=1;fillColor=#dae8fc;strokeColor=#6c8ebf;" vertex="1" parent="1">
          <mxGeometry x="-175" y="1040" width="695" height="1110" as="geometry" />
        </mxCell>
        <mxCell id="n8XnSLK7DUbdd084pU-v-20" value="" style="rounded=0;whiteSpace=wrap;html=1;fillColor=#ffe6cc;strokeColor=#d79b00;" vertex="1" parent="1">
          <mxGeometry x="-160" y="1070" width="660" height="410" as="geometry" />
        </mxCell>
        <mxCell id="n8XnSLK7DUbdd084pU-v-21" value="&lt;b&gt;thead&lt;/b&gt;" style="text;strokeColor=none;fillColor=none;html=1;align=center;verticalAlign=middle;whiteSpace=wrap;rounded=0;fontSize=16;" vertex="1" parent="1">
          <mxGeometry x="-150" y="1080" width="60" height="30" as="geometry" />
        </mxCell>
        <mxCell id="n8XnSLK7DUbdd084pU-v-22" value="" style="rounded=0;whiteSpace=wrap;html=1;" vertex="1" parent="1">
          <mxGeometry x="-140" y="1120" width="620" height="340" as="geometry" />
        </mxCell>
        <mxCell id="n8XnSLK7DUbdd084pU-v-23" value="&lt;b&gt;tr&lt;/b&gt;" style="text;strokeColor=none;fillColor=none;html=1;align=center;verticalAlign=middle;whiteSpace=wrap;rounded=0;fontSize=16;" vertex="1" parent="1">
          <mxGeometry x="-150" y="1120" width="60" height="30" as="geometry" />
        </mxCell>
        <mxCell id="n8XnSLK7DUbdd084pU-v-24" value="&lt;font style=&quot;font-size: 15px;&quot;&gt;No&lt;/font&gt;" style="rounded=0;whiteSpace=wrap;html=1;" vertex="1" parent="1">
          <mxGeometry x="-125" y="1150" width="585" height="50" as="geometry" />
        </mxCell>
        <mxCell id="n8XnSLK7DUbdd084pU-v-25" value="&lt;b&gt;th&lt;/b&gt;" style="text;strokeColor=none;fillColor=none;html=1;align=center;verticalAlign=middle;whiteSpace=wrap;rounded=0;fontSize=16;" vertex="1" parent="1">
          <mxGeometry x="-136" y="1153" width="60" height="30" as="geometry" />
        </mxCell>
        <mxCell id="n8XnSLK7DUbdd084pU-v-27" value="&lt;font style=&quot;font-size: 15px;&quot;&gt;Title&lt;/font&gt;" style="rounded=0;whiteSpace=wrap;html=1;" vertex="1" parent="1">
          <mxGeometry x="-125" y="1210" width="585" height="50" as="geometry" />
        </mxCell>
        <mxCell id="n8XnSLK7DUbdd084pU-v-28" value="&lt;b&gt;th&lt;/b&gt;" style="text;strokeColor=none;fillColor=none;html=1;align=center;verticalAlign=middle;whiteSpace=wrap;rounded=0;fontSize=16;" vertex="1" parent="1">
          <mxGeometry x="-136" y="1213" width="60" height="30" as="geometry" />
        </mxCell>
        <mxCell id="n8XnSLK7DUbdd084pU-v-29" value="&lt;font style=&quot;font-size: 15px;&quot;&gt;Author&lt;/font&gt;" style="rounded=0;whiteSpace=wrap;html=1;" vertex="1" parent="1">
          <mxGeometry x="-125" y="1270" width="585" height="50" as="geometry" />
        </mxCell>
        <mxCell id="n8XnSLK7DUbdd084pU-v-30" value="&lt;b&gt;th&lt;/b&gt;" style="text;strokeColor=none;fillColor=none;html=1;align=center;verticalAlign=middle;whiteSpace=wrap;rounded=0;fontSize=16;" vertex="1" parent="1">
          <mxGeometry x="-136" y="1273" width="60" height="30" as="geometry" />
        </mxCell>
        <mxCell id="n8XnSLK7DUbdd084pU-v-31" value="&lt;font style=&quot;font-size: 15px;&quot;&gt;PublishYear&lt;/font&gt;" style="rounded=0;whiteSpace=wrap;html=1;" vertex="1" parent="1">
          <mxGeometry x="-125" y="1330" width="585" height="50" as="geometry" />
        </mxCell>
        <mxCell id="n8XnSLK7DUbdd084pU-v-32" value="&lt;b&gt;th&lt;/b&gt;" style="text;strokeColor=none;fillColor=none;html=1;align=center;verticalAlign=middle;whiteSpace=wrap;rounded=0;fontSize=16;" vertex="1" parent="1">
          <mxGeometry x="-136" y="1333" width="60" height="30" as="geometry" />
        </mxCell>
        <mxCell id="n8XnSLK7DUbdd084pU-v-33" value="&lt;font style=&quot;font-size: 15px;&quot;&gt;Operations&lt;/font&gt;" style="rounded=0;whiteSpace=wrap;html=1;" vertex="1" parent="1">
          <mxGeometry x="-125" y="1390" width="585" height="50" as="geometry" />
        </mxCell>
        <mxCell id="n8XnSLK7DUbdd084pU-v-34" value="&lt;b&gt;th&lt;/b&gt;" style="text;strokeColor=none;fillColor=none;html=1;align=center;verticalAlign=middle;whiteSpace=wrap;rounded=0;fontSize=16;" vertex="1" parent="1">
          <mxGeometry x="-136" y="1393" width="60" height="30" as="geometry" />
        </mxCell>
        <mxCell id="n8XnSLK7DUbdd084pU-v-36" value="table" style="text;strokeColor=none;fillColor=none;html=1;align=center;verticalAlign=middle;whiteSpace=wrap;rounded=0;fontSize=16;" vertex="1" parent="1">
          <mxGeometry x="-175" y="1040" width="60" height="30" as="geometry" />
        </mxCell>
        <mxCell id="n8XnSLK7DUbdd084pU-v-37" value="" style="rounded=0;whiteSpace=wrap;html=1;fillColor=#f8cecc;strokeColor=#b85450;" vertex="1" parent="1">
          <mxGeometry x="-160.5" y="1495" width="660" height="645" as="geometry" />
        </mxCell>
        <mxCell id="n8XnSLK7DUbdd084pU-v-38" value="tbody" style="text;strokeColor=none;fillColor=none;html=1;align=center;verticalAlign=middle;whiteSpace=wrap;rounded=0;fontSize=16;" vertex="1" parent="1">
          <mxGeometry x="-152.5" y="1505" width="60" height="30" as="geometry" />
        </mxCell>
        <mxCell id="n8XnSLK7DUbdd084pU-v-39" value="" style="rounded=0;whiteSpace=wrap;html=1;fillColor=#e1d5e7;strokeColor=#9673a6;" vertex="1" parent="1">
          <mxGeometry x="-137.5" y="1535" width="620" height="595" as="geometry" />
        </mxCell>
        <mxCell id="n8XnSLK7DUbdd084pU-v-40" value="&lt;b&gt;tr&lt;/b&gt;" style="text;strokeColor=none;fillColor=none;html=1;align=center;verticalAlign=middle;whiteSpace=wrap;rounded=0;fontSize=16;" vertex="1" parent="1">
          <mxGeometry x="-147.5" y="1535" width="60" height="30" as="geometry" />
        </mxCell>
        <mxCell id="n8XnSLK7DUbdd084pU-v-42" value="{ key: book._id}&amp;nbsp;" style="text;strokeColor=none;fillColor=none;html=1;align=center;verticalAlign=middle;whiteSpace=wrap;rounded=0;fontSize=16;" vertex="1" parent="1">
          <mxGeometry x="-50" y="1540" width="160" height="20" as="geometry" />
        </mxCell>
        <mxCell id="n8XnSLK7DUbdd084pU-v-43" value="&lt;font style=&quot;font-size: 16px;&quot;&gt;index + 1&lt;/font&gt;" style="rounded=0;whiteSpace=wrap;html=1;" vertex="1" parent="1">
          <mxGeometry x="-126" y="1565" width="596" height="55" as="geometry" />
        </mxCell>
        <mxCell id="n8XnSLK7DUbdd084pU-v-44" value="&lt;b&gt;td&lt;/b&gt;" style="text;strokeColor=none;fillColor=none;html=1;align=center;verticalAlign=middle;whiteSpace=wrap;rounded=0;fontSize=16;" vertex="1" parent="1">
          <mxGeometry x="-136" y="1565" width="60" height="30" as="geometry" />
        </mxCell>
        <mxCell id="n8XnSLK7DUbdd084pU-v-45" value="&lt;font style=&quot;font-size: 16px;&quot;&gt;book.title&lt;/font&gt;" style="rounded=0;whiteSpace=wrap;html=1;" vertex="1" parent="1">
          <mxGeometry x="-125" y="1630" width="596" height="55" as="geometry" />
        </mxCell>
        <mxCell id="n8XnSLK7DUbdd084pU-v-46" value="&lt;b&gt;td&lt;/b&gt;" style="text;strokeColor=none;fillColor=none;html=1;align=center;verticalAlign=middle;whiteSpace=wrap;rounded=0;fontSize=16;" vertex="1" parent="1">
          <mxGeometry x="-135" y="1630" width="60" height="30" as="geometry" />
        </mxCell>
        <mxCell id="n8XnSLK7DUbdd084pU-v-47" value="&lt;font style=&quot;font-size: 16px;&quot;&gt;book.author&lt;/font&gt;" style="rounded=0;whiteSpace=wrap;html=1;" vertex="1" parent="1">
          <mxGeometry x="-125.5" y="1700" width="596" height="55" as="geometry" />
        </mxCell>
        <mxCell id="n8XnSLK7DUbdd084pU-v-48" value="&lt;b&gt;td&lt;/b&gt;" style="text;strokeColor=none;fillColor=none;html=1;align=center;verticalAlign=middle;whiteSpace=wrap;rounded=0;fontSize=16;" vertex="1" parent="1">
          <mxGeometry x="-135.5" y="1700" width="60" height="30" as="geometry" />
        </mxCell>
        <mxCell id="n8XnSLK7DUbdd084pU-v-49" value="&lt;font style=&quot;font-size: 16px;&quot;&gt;book.publishYear&lt;/font&gt;" style="rounded=0;whiteSpace=wrap;html=1;" vertex="1" parent="1">
          <mxGeometry x="-125" y="1770" width="596" height="55" as="geometry" />
        </mxCell>
        <mxCell id="n8XnSLK7DUbdd084pU-v-50" value="&lt;b&gt;td&lt;/b&gt;" style="text;strokeColor=none;fillColor=none;html=1;align=center;verticalAlign=middle;whiteSpace=wrap;rounded=0;fontSize=16;" vertex="1" parent="1">
          <mxGeometry x="-135" y="1770" width="60" height="30" as="geometry" />
        </mxCell>
        <mxCell id="n8XnSLK7DUbdd084pU-v-51" value="" style="rounded=0;whiteSpace=wrap;html=1;" vertex="1" parent="1">
          <mxGeometry x="-125.5" y="1840" width="596" height="280" as="geometry" />
        </mxCell>
        <mxCell id="n8XnSLK7DUbdd084pU-v-52" value="&lt;b&gt;td&lt;/b&gt;" style="text;strokeColor=none;fillColor=none;html=1;align=center;verticalAlign=middle;whiteSpace=wrap;rounded=0;fontSize=16;" vertex="1" parent="1">
          <mxGeometry x="-135.5" y="1840" width="60" height="30" as="geometry" />
        </mxCell>
        <mxCell id="n8XnSLK7DUbdd084pU-v-53" value="" style="rounded=0;whiteSpace=wrap;html=1;" vertex="1" parent="1">
          <mxGeometry x="-113.5" y="1870" width="573.5" height="240" as="geometry" />
        </mxCell>
        <mxCell id="n8XnSLK7DUbdd084pU-v-54" value="&lt;b&gt;div&lt;/b&gt;" style="text;strokeColor=none;fillColor=none;html=1;align=center;verticalAlign=middle;whiteSpace=wrap;rounded=0;fontSize=16;" vertex="1" parent="1">
          <mxGeometry x="-123.5" y="1870" width="60" height="30" as="geometry" />
        </mxCell>
        <mxCell id="n8XnSLK7DUbdd084pU-v-55" value="" style="rounded=0;whiteSpace=wrap;html=1;" vertex="1" parent="1">
          <mxGeometry x="-102.5" y="1900" width="552.5" height="60" as="geometry" />
        </mxCell>
        <mxCell id="n8XnSLK7DUbdd084pU-v-56" value="&lt;b&gt;Link&lt;/b&gt;" style="text;strokeColor=none;fillColor=none;html=1;align=center;verticalAlign=middle;whiteSpace=wrap;rounded=0;fontSize=16;" vertex="1" parent="1">
          <mxGeometry x="-106.5" y="1900" width="60" height="30" as="geometry" />
        </mxCell>
        <mxCell id="n8XnSLK7DUbdd084pU-v-57" value="" style="rounded=0;whiteSpace=wrap;html=1;" vertex="1" parent="1">
          <mxGeometry x="-101.75" y="1970" width="552.5" height="60" as="geometry" />
        </mxCell>
        <mxCell id="n8XnSLK7DUbdd084pU-v-58" value="&lt;b&gt;Link&lt;/b&gt;" style="text;strokeColor=none;fillColor=none;html=1;align=center;verticalAlign=middle;whiteSpace=wrap;rounded=0;fontSize=16;" vertex="1" parent="1">
          <mxGeometry x="-105.75" y="1970" width="60" height="30" as="geometry" />
        </mxCell>
        <mxCell id="n8XnSLK7DUbdd084pU-v-59" value="" style="rounded=0;whiteSpace=wrap;html=1;" vertex="1" parent="1">
          <mxGeometry x="-102.5" y="2040" width="552.5" height="60" as="geometry" />
        </mxCell>
        <mxCell id="n8XnSLK7DUbdd084pU-v-60" value="&lt;b&gt;Link&lt;/b&gt;" style="text;strokeColor=none;fillColor=none;html=1;align=center;verticalAlign=middle;whiteSpace=wrap;rounded=0;fontSize=16;" vertex="1" parent="1">
          <mxGeometry x="-106.5" y="2040" width="60" height="30" as="geometry" />
        </mxCell>
        <mxCell id="n8XnSLK7DUbdd084pU-v-61" value="&lt;i&gt;/books/details/book.id&lt;/i&gt;" style="text;strokeColor=none;fillColor=none;html=1;align=center;verticalAlign=middle;whiteSpace=wrap;rounded=0;fontSize=16;" vertex="1" parent="1">
          <mxGeometry x="-20" y="1900" width="150" height="40" as="geometry" />
        </mxCell>
        <mxCell id="n8XnSLK7DUbdd084pU-v-62" value="&lt;i&gt;/books/edit/book.id&lt;/i&gt;" style="text;strokeColor=none;fillColor=none;html=1;align=center;verticalAlign=middle;whiteSpace=wrap;rounded=0;fontSize=16;" vertex="1" parent="1">
          <mxGeometry x="-20" y="1965" width="150" height="40" as="geometry" />
        </mxCell>
        <mxCell id="n8XnSLK7DUbdd084pU-v-63" value="&lt;i&gt;/books/delete/book.id&lt;/i&gt;" style="text;strokeColor=none;fillColor=none;html=1;align=center;verticalAlign=middle;whiteSpace=wrap;rounded=0;fontSize=16;" vertex="1" parent="1">
          <mxGeometry x="-20" y="2035" width="150" height="40" as="geometry" />
        </mxCell>
        <mxCell id="n8XnSLK7DUbdd084pU-v-64" value="" style="rounded=0;whiteSpace=wrap;html=1;fillColor=#eeeeee;strokeColor=#36393d;" vertex="1" parent="1">
          <mxGeometry x="-189" y="2280" width="730" height="360" as="geometry" />
        </mxCell>
        <mxCell id="n8XnSLK7DUbdd084pU-v-65" value="&lt;b&gt;BooksCard&lt;/b&gt;" style="text;strokeColor=none;fillColor=none;html=1;align=center;verticalAlign=middle;whiteSpace=wrap;rounded=0;fontSize=16;" vertex="1" parent="1">
          <mxGeometry x="-159" y="2290" width="60" height="30" as="geometry" />
        </mxCell>
        <mxCell id="n8XnSLK7DUbdd084pU-v-66" value="{ books: &lt;b&gt;books&lt;/b&gt; }" style="text;strokeColor=none;fillColor=none;html=1;align=center;verticalAlign=middle;whiteSpace=wrap;rounded=0;fontSize=16;" vertex="1" parent="1">
          <mxGeometry x="51" y="2290" width="160" height="30" as="geometry" />
        </mxCell>
        <mxCell id="n8XnSLK7DUbdd084pU-v-67" value="" style="rounded=0;whiteSpace=wrap;html=1;fillColor=#dae8fc;strokeColor=#6c8ebf;" vertex="1" parent="1">
          <mxGeometry x="-174" y="2330" width="695" height="290" as="geometry" />
        </mxCell>
        <mxCell id="n8XnSLK7DUbdd084pU-v-82" value="div" style="text;strokeColor=none;fillColor=none;html=1;align=center;verticalAlign=middle;whiteSpace=wrap;rounded=0;fontSize=16;" vertex="1" parent="1">
          <mxGeometry x="-174" y="2330" width="60" height="30" as="geometry" />
        </mxCell>
        <mxCell id="n8XnSLK7DUbdd084pU-v-109" value="" style="rounded=0;whiteSpace=wrap;html=1;fillColor=#ffe6cc;strokeColor=#d79b00;" vertex="1" parent="1">
          <mxGeometry x="-157" y="2370" width="660" height="70" as="geometry" />
        </mxCell>
        <mxCell id="n8XnSLK7DUbdd084pU-v-110" value="&lt;b&gt;BookSingleCard&lt;/b&gt;" style="text;strokeColor=none;fillColor=none;html=1;align=center;verticalAlign=middle;whiteSpace=wrap;rounded=0;fontSize=16;" vertex="1" parent="1">
          <mxGeometry x="-110" y="2370" width="60" height="30" as="geometry" />
        </mxCell>
        <mxCell id="n8XnSLK7DUbdd084pU-v-112" value="{ key: book._id, book: book }" style="text;strokeColor=none;fillColor=none;html=1;align=center;verticalAlign=middle;whiteSpace=wrap;rounded=0;fontSize=16;" vertex="1" parent="1">
          <mxGeometry x="75" y="2370" width="215" height="30" as="geometry" />
        </mxCell>
        <mxCell id="n8XnSLK7DUbdd084pU-v-113" value="" style="rounded=0;whiteSpace=wrap;html=1;fillColor=#ffe6cc;strokeColor=#d79b00;" vertex="1" parent="1">
          <mxGeometry x="-157.5" y="2450" width="660" height="70" as="geometry" />
        </mxCell>
        <mxCell id="n8XnSLK7DUbdd084pU-v-114" value="&lt;b&gt;BookSingleCard&lt;/b&gt;" style="text;strokeColor=none;fillColor=none;html=1;align=center;verticalAlign=middle;whiteSpace=wrap;rounded=0;fontSize=16;" vertex="1" parent="1">
          <mxGeometry x="-110.5" y="2450" width="60" height="30" as="geometry" />
        </mxCell>
        <mxCell id="n8XnSLK7DUbdd084pU-v-115" value="{ key: book._id, book: book }" style="text;strokeColor=none;fillColor=none;html=1;align=center;verticalAlign=middle;whiteSpace=wrap;rounded=0;fontSize=16;" vertex="1" parent="1">
          <mxGeometry x="74.5" y="2450" width="215" height="30" as="geometry" />
        </mxCell>
        <mxCell id="n8XnSLK7DUbdd084pU-v-116" value="" style="rounded=0;whiteSpace=wrap;html=1;fillColor=#ffe6cc;strokeColor=#d79b00;" vertex="1" parent="1">
          <mxGeometry x="-157" y="2530" width="660" height="70" as="geometry" />
        </mxCell>
        <mxCell id="n8XnSLK7DUbdd084pU-v-117" value="&lt;b&gt;BookSingleCard&lt;/b&gt;" style="text;strokeColor=none;fillColor=none;html=1;align=center;verticalAlign=middle;whiteSpace=wrap;rounded=0;fontSize=16;" vertex="1" parent="1">
          <mxGeometry x="-110" y="2530" width="60" height="30" as="geometry" />
        </mxCell>
        <mxCell id="n8XnSLK7DUbdd084pU-v-118" value="{ key: book._id, book: book }" style="text;strokeColor=none;fillColor=none;html=1;align=center;verticalAlign=middle;whiteSpace=wrap;rounded=0;fontSize=16;" vertex="1" parent="1">
          <mxGeometry x="75" y="2530" width="215" height="30" as="geometry" />
        </mxCell>
        <mxCell id="n8XnSLK7DUbdd084pU-v-119" value="" style="rounded=0;whiteSpace=wrap;html=1;fillColor=#eeeeee;strokeColor=#36393d;" vertex="1" parent="1">
          <mxGeometry x="-190.5" y="2710" width="730" height="940" as="geometry" />
        </mxCell>
        <mxCell id="n8XnSLK7DUbdd084pU-v-120" value="&lt;b&gt;BookSingleCard&lt;/b&gt;" style="text;strokeColor=none;fillColor=none;html=1;align=center;verticalAlign=middle;whiteSpace=wrap;rounded=0;fontSize=16;" vertex="1" parent="1">
          <mxGeometry x="-180" y="2720" width="130.5" height="40" as="geometry" />
        </mxCell>
        <mxCell id="n8XnSLK7DUbdd084pU-v-121" value="{ key: book._id, book: book }" style="text;strokeColor=none;fillColor=none;html=1;align=center;verticalAlign=middle;whiteSpace=wrap;rounded=0;fontSize=16;" vertex="1" parent="1">
          <mxGeometry x="84.5" y="2725" width="215" height="30" as="geometry" />
        </mxCell>
        <mxCell id="n8XnSLK7DUbdd084pU-v-122" value="&lt;font style=&quot;font-size: 18px;&quot;&gt;showModal&lt;/font&gt;" style="rounded=0;whiteSpace=wrap;html=1;fillColor=#fff2cc;strokeColor=#d6b656;" vertex="1" parent="1">
          <mxGeometry x="361" y="2750" width="160" height="80" as="geometry" />
        </mxCell>
        <mxCell id="n8XnSLK7DUbdd084pU-v-124" value="" style="rounded=0;whiteSpace=wrap;html=1;fillColor=#dae8fc;strokeColor=#6c8ebf;" vertex="1" parent="1">
          <mxGeometry x="-166" y="2800" width="465.5" height="820" as="geometry" />
        </mxCell>
        <mxCell id="n8XnSLK7DUbdd084pU-v-125" value="div" style="text;strokeColor=none;fillColor=none;html=1;align=center;verticalAlign=middle;whiteSpace=wrap;rounded=0;fontSize=16;" vertex="1" parent="1">
          <mxGeometry x="-170.5" y="2800" width="60" height="30" as="geometry" />
        </mxCell>
        <mxCell id="n8XnSLK7DUbdd084pU-v-127" value="&lt;font style=&quot;font-size: 16px;&quot;&gt;book.publishYear&lt;/font&gt;" style="rounded=0;whiteSpace=wrap;html=1;" vertex="1" parent="1">
          <mxGeometry x="-152.5" y="2840" width="432" height="55" as="geometry" />
        </mxCell>
        <mxCell id="n8XnSLK7DUbdd084pU-v-128" value="&lt;b&gt;h2&lt;/b&gt;" style="text;strokeColor=none;fillColor=none;html=1;align=center;verticalAlign=middle;whiteSpace=wrap;rounded=0;fontSize=16;" vertex="1" parent="1">
          <mxGeometry x="-162.5" y="2840" width="60" height="30" as="geometry" />
        </mxCell>
        <mxCell id="n8XnSLK7DUbdd084pU-v-129" value="&lt;font style=&quot;font-size: 16px;&quot;&gt;book.id&lt;/font&gt;" style="rounded=0;whiteSpace=wrap;html=1;" vertex="1" parent="1">
          <mxGeometry x="-150" y="2910" width="429.5" height="55" as="geometry" />
        </mxCell>
        <mxCell id="n8XnSLK7DUbdd084pU-v-130" value="&lt;b&gt;h4&lt;/b&gt;" style="text;strokeColor=none;fillColor=none;html=1;align=center;verticalAlign=middle;whiteSpace=wrap;rounded=0;fontSize=16;" vertex="1" parent="1">
          <mxGeometry x="-160" y="2910" width="60" height="30" as="geometry" />
        </mxCell>
        <mxCell id="n8XnSLK7DUbdd084pU-v-131" value="&lt;font style=&quot;font-size: 16px;&quot;&gt;book.title&lt;/font&gt;&lt;span style=&quot;color: rgba(0, 0, 0, 0); font-family: monospace; font-size: 0px; text-align: start; text-wrap: nowrap;&quot;&gt;%3CmxGraphModel%3E%3Croot%3E%3CmxCell%20id%3D%220%22%2F%3E%3CmxCell%20id%3D%221%22%20parent%3D%220%22%2F%3E%3CmxCell%20id%3D%222%22%20value%3D%22%26lt%3Bfont%20style%3D%26quot%3Bfont-size%3A%2016px%3B%26quot%3B%26gt%3Bbook.publishYear%26lt%3B%2Ffont%26gt%3B%22%20style%3D%22rounded%3D0%3BwhiteSpace%3Dwrap%3Bhtml%3D1%3B%22%20vertex%3D%221%22%20parent%3D%221%22%3E%3CmxGeometry%20x%3D%22-162%22%20y%3D%222890%22%20width%3D%22662%22%20height%3D%2255%22%20as%3D%22geometry%22%2F%3E%3C%2FmxCell%3E%3CmxCell%20id%3D%223%22%20value%3D%22%26lt%3Bb%26gt%3Bh2%26lt%3B%2Fb%26gt%3B%22%20style%3D%22text%3BstrokeColor%3Dnone%3BfillColor%3Dnone%3Bhtml%3D1%3Balign%3Dcenter%3BverticalAlign%3Dmiddle%3BwhiteSpace%3Dwrap%3Brounded%3D0%3BfontSize%3D16%3B%22%20vertex%3D%221%22%20parent%3D%221%22%3E%3CmxGeometry%20x%3D%22-172%22%20y%3D%222890%22%20width%3D%2260%22%20height%3D%2230%22%20as%3D%22geometry%22%2F%3E%3C%2FmxCell%3E%3C%2Froot%3E%3C%2FmxGraphModel%3E&lt;/span&gt;&lt;span style=&quot;color: rgba(0, 0, 0, 0); font-family: monospace; font-size: 0px; text-align: start; text-wrap: nowrap;&quot;&gt;%3CmxGraphModel%3E%3Croot%3E%3CmxCell%20id%3D%220%22%2F%3E%3CmxCell%20id%3D%221%22%20parent%3D%220%22%2F%3E%3CmxCell%20id%3D%222%22%20value%3D%22%26lt%3Bfont%20style%3D%26quot%3Bfont-size%3A%2016px%3B%26quot%3B%26gt%3Bbook.publishYear%26lt%3B%2Ffont%26gt%3B%22%20style%3D%22rounded%3D0%3BwhiteSpace%3Dwrap%3Bhtml%3D1%3B%22%20vertex%3D%221%22%20parent%3D%221%22%3E%3CmxGeometry%20x%3D%22-162%22%20y%3D%222890%22%20width%3D%22662%22%20height%3D%2255%22%20as%3D%22geometry%22%2F%3E%3C%2FmxCell%3E%3CmxCell%20id%3D%223%22%20value%3D%22%26lt%3Bb%26gt%3Bh2%26lt%3B%2Fb%26gt%3B%22%20style%3D%22text%3BstrokeColor%3Dnone%3BfillColor%3Dnone%3Bhtml%3D1%3Balign%3Dcenter%3BverticalAlign%3Dmiddle%3BwhiteSpace%3Dwrap%3Brounded%3D0%3BfontSize%3D16%3B%22%20vertex%3D%221%22%20parent%3D%221%22%3E%3CmxGeometry%20x%3D%22-172%22%20y%3D%222890%22%20width%3D%2260%22%20height%3D%2230%22%20as%3D%22geometry%22%2F%3E%3C%2FmxCell%3E%3C%2Froot%3E%3C%2FmxGraphModel%3E&lt;/span&gt;" style="rounded=0;whiteSpace=wrap;html=1;" vertex="1" parent="1">
          <mxGeometry x="-149.5" y="2980" width="429" height="55" as="geometry" />
        </mxCell>
        <mxCell id="n8XnSLK7DUbdd084pU-v-132" value="&lt;b&gt;h2&lt;/b&gt;" style="text;strokeColor=none;fillColor=none;html=1;align=center;verticalAlign=middle;whiteSpace=wrap;rounded=0;fontSize=16;" vertex="1" parent="1">
          <mxGeometry x="-159.5" y="2980" width="60" height="30" as="geometry" />
        </mxCell>
        <mxCell id="n8XnSLK7DUbdd084pU-v-133" value="&lt;font style=&quot;font-size: 16px;&quot;&gt;book.author&lt;/font&gt;&lt;span style=&quot;color: rgba(0, 0, 0, 0); font-family: monospace; font-size: 0px; text-align: start; text-wrap: nowrap;&quot;&gt;%3CmxGraphModel%3E%3Croot%3E%3CmxCell%20id%3D%220%22%2F%3E%3CmxCell%20id%3D%221%22%20parent%3D%220%22%2F%3E%3CmxCell%20id%3D%222%22%20value%3D%22%26lt%3Bfont%20style%3D%26quot%3Bfont-size%3A%2016px%3B%26quot%3B%26gt%3Bbook.publishYear%26lt%3B%2Ffont%26gt%3B%22%20style%3D%22rounded%3D0%3BwhiteSpace%3Dwrap%3Bhtml%3D1%3B%22%20vertex%3D%221%22%20parent%3D%221%22%3E%3CmxGeometry%20x%3D%22-162%22%20y%3D%222890%22%20width%3D%22662%22%20height%3D%2255%22%20as%3D%22geometry%22%2F%3E%3C%2FmxCell%3E%3CmxCell%20id%3D%223%22%20value%3D%22%26lt%3Bb%26gt%3Bh2%26lt%3B%2Fb%26gt%3B%22%20style%3D%22text%3BstrokeColor%3Dnone%3BfillColor%3Dnone%3Bhtml%3D1%3Balign%3Dcenter%3BverticalAlign%3Dmiddle%3BwhiteSpace%3Dwrap%3Brounded%3D0%3BfontSize%3D16%3B%22%20vertex%3D%221%22%20parent%3D%221%22%3E%3CmxGeometry%20x%3D%22-172%22%20y%3D%222890%22%20width%3D%2260%22%20height%3D%2230%22%20as%3D%22geometry%22%2F%3E%3C%2FmxCell%3E%3C%2Froot%3E%3C%2FmxGraphModel%3E&lt;/span&gt;&lt;span style=&quot;color: rgba(0, 0, 0, 0); font-family: monospace; font-size: 0px; text-align: start; text-wrap: nowrap;&quot;&gt;%3CmxGraphModel%3E%3Croot%3E%3CmxCell%20id%3D%220%22%2F%3E%3CmxCell%20id%3D%221%22%20parent%3D%220%22%2F%3E%3CmxCell%20id%3D%222%22%20value%3D%22%26lt%3Bfont%20style%3D%26quot%3Bfont-size%3A%2016px%3B%26quot%3B%26gt%3Bbook.publishYear%26lt%3B%2Ffont%26gt%3B%22%20style%3D%22rounded%3D0%3BwhiteSpace%3Dwrap%3Bhtml%3D1%3B%22%20vertex%3D%221%22%20parent%3D%221%22%3E%3CmxGeometry%20x%3D%22-162%22%20y%3D%222890%22%20width%3D%22662%22%20height%3D%2255%22%20as%3D%22geometry%22%2F%3E%3C%2FmxCell%3E%3CmxCell%20id%3D%223%22%20value%3D%22%26lt%3Bb%26gt%3Bh2%26lt%3B%2Fb%26gt%3B%22%20style%3D%22text%3BstrokeColor%3Dnone%3BfillColor%3Dnone%3Bhtml%3D1%3Balign%3Dcenter%3BverticalAlign%3Dmiddle%3BwhiteSpace%3Dwrap%3Brounded%3D0%3BfontSize%3D16%3B%22%20vertex%3D%221%22%20parent%3D%221%22%3E%3CmxGeometry%20x%3D%22-172%22%20y%3D%222890%22%20width%3D%2260%22%20height%3D%2230%22%20as%3D%22geometry%22%2F%3E%3C%2FmxCell%3E%3C%2Froot%3E%3C%2FmxGraphModel%3E&lt;/span&gt;" style="rounded=0;whiteSpace=wrap;html=1;" vertex="1" parent="1">
          <mxGeometry x="-150" y="3050" width="429.5" height="55" as="geometry" />
        </mxCell>
        <mxCell id="n8XnSLK7DUbdd084pU-v-134" value="&lt;b&gt;h2&lt;/b&gt;" style="text;strokeColor=none;fillColor=none;html=1;align=center;verticalAlign=middle;whiteSpace=wrap;rounded=0;fontSize=16;" vertex="1" parent="1">
          <mxGeometry x="-160" y="3050" width="60" height="30" as="geometry" />
        </mxCell>
        <mxCell id="n8XnSLK7DUbdd084pU-v-137" style="edgeStyle=orthogonalEdgeStyle;curved=1;rounded=0;orthogonalLoop=1;jettySize=auto;html=1;exitX=1;exitY=0.5;exitDx=0;exitDy=0;entryX=0.5;entryY=1;entryDx=0;entryDy=0;fontSize=12;startSize=8;endSize=8;" edge="1" parent="1" source="n8XnSLK7DUbdd084pU-v-135" target="n8XnSLK7DUbdd084pU-v-122">
          <mxGeometry relative="1" as="geometry" />
        </mxCell>
        <mxCell id="n8XnSLK7DUbdd084pU-v-135" value="" style="rounded=0;whiteSpace=wrap;html=1;" vertex="1" parent="1">
          <mxGeometry x="-149.5" y="3120" width="429.5" height="55" as="geometry" />
        </mxCell>
        <mxCell id="n8XnSLK7DUbdd084pU-v-136" value="&lt;b&gt;BiShow&lt;/b&gt;" style="text;strokeColor=none;fillColor=none;html=1;align=center;verticalAlign=middle;whiteSpace=wrap;rounded=0;fontSize=16;" vertex="1" parent="1">
          <mxGeometry x="-140.5" y="3120" width="60" height="30" as="geometry" />
        </mxCell>
        <mxCell id="n8XnSLK7DUbdd084pU-v-138" value="" style="rounded=0;whiteSpace=wrap;html=1;" vertex="1" parent="1">
          <mxGeometry x="-148.5" y="3190" width="428" height="60" as="geometry" />
        </mxCell>
        <mxCell id="n8XnSLK7DUbdd084pU-v-139" value="&lt;b&gt;Link&lt;/b&gt;" style="text;strokeColor=none;fillColor=none;html=1;align=center;verticalAlign=middle;whiteSpace=wrap;rounded=0;fontSize=16;" vertex="1" parent="1">
          <mxGeometry x="-152.5" y="3190" width="60" height="30" as="geometry" />
        </mxCell>
        <mxCell id="n8XnSLK7DUbdd084pU-v-140" value="" style="rounded=0;whiteSpace=wrap;html=1;" vertex="1" parent="1">
          <mxGeometry x="-147.75" y="3260" width="427.25" height="60" as="geometry" />
        </mxCell>
        <mxCell id="n8XnSLK7DUbdd084pU-v-141" value="&lt;b&gt;Link&lt;/b&gt;" style="text;strokeColor=none;fillColor=none;html=1;align=center;verticalAlign=middle;whiteSpace=wrap;rounded=0;fontSize=16;" vertex="1" parent="1">
          <mxGeometry x="-151.75" y="3260" width="60" height="30" as="geometry" />
        </mxCell>
        <mxCell id="n8XnSLK7DUbdd084pU-v-142" value="" style="rounded=0;whiteSpace=wrap;html=1;" vertex="1" parent="1">
          <mxGeometry x="-148.5" y="3330" width="428" height="60" as="geometry" />
        </mxCell>
        <mxCell id="n8XnSLK7DUbdd084pU-v-143" value="&lt;b&gt;Link&lt;/b&gt;" style="text;strokeColor=none;fillColor=none;html=1;align=center;verticalAlign=middle;whiteSpace=wrap;rounded=0;fontSize=16;" vertex="1" parent="1">
          <mxGeometry x="-152.5" y="3330" width="60" height="30" as="geometry" />
        </mxCell>
        <mxCell id="n8XnSLK7DUbdd084pU-v-144" value="&lt;i&gt;/books/details/book.id&lt;/i&gt;" style="text;strokeColor=none;fillColor=none;html=1;align=center;verticalAlign=middle;whiteSpace=wrap;rounded=0;fontSize=16;" vertex="1" parent="1">
          <mxGeometry x="-66" y="3190" width="150" height="40" as="geometry" />
        </mxCell>
        <mxCell id="n8XnSLK7DUbdd084pU-v-145" value="&lt;i&gt;/books/edit/book.id&lt;/i&gt;" style="text;strokeColor=none;fillColor=none;html=1;align=center;verticalAlign=middle;whiteSpace=wrap;rounded=0;fontSize=16;" vertex="1" parent="1">
          <mxGeometry x="-66" y="3255" width="150" height="40" as="geometry" />
        </mxCell>
        <mxCell id="n8XnSLK7DUbdd084pU-v-146" value="&lt;i&gt;/books/delete/book.id&lt;/i&gt;" style="text;strokeColor=none;fillColor=none;html=1;align=center;verticalAlign=middle;whiteSpace=wrap;rounded=0;fontSize=16;" vertex="1" parent="1">
          <mxGeometry x="-66" y="3325" width="150" height="40" as="geometry" />
        </mxCell>
        <mxCell id="n8XnSLK7DUbdd084pU-v-147" value="" style="rounded=0;whiteSpace=wrap;html=1;fillColor=#ffcccc;strokeColor=#36393d;dashed=1;" vertex="1" parent="1">
          <mxGeometry x="-152.5" y="3460" width="432.5" height="130" as="geometry" />
        </mxCell>
        <mxCell id="n8XnSLK7DUbdd084pU-v-148" value="&lt;u&gt;if showModal true&lt;/u&gt;" style="text;strokeColor=none;fillColor=none;html=1;align=center;verticalAlign=middle;whiteSpace=wrap;rounded=0;fontSize=16;" vertex="1" parent="1">
          <mxGeometry x="-46.5" y="3420" width="200" height="40" as="geometry" />
        </mxCell>
        <mxCell id="n8XnSLK7DUbdd084pU-v-149" value="&lt;b&gt;BookModal&lt;/b&gt;" style="text;strokeColor=none;fillColor=none;html=1;align=center;verticalAlign=middle;whiteSpace=wrap;rounded=0;fontSize=16;" vertex="1" parent="1">
          <mxGeometry x="-135" y="3460" width="60" height="30" as="geometry" />
        </mxCell>
        <mxCell id="n8XnSLK7DUbdd084pU-v-150" style="edgeStyle=orthogonalEdgeStyle;curved=1;rounded=0;orthogonalLoop=1;jettySize=auto;html=1;exitX=1;exitY=0.5;exitDx=0;exitDy=0;entryX=0.678;entryY=0.982;entryDx=0;entryDy=0;entryPerimeter=0;fontSize=12;startSize=8;endSize=8;" edge="1" parent="1" source="n8XnSLK7DUbdd084pU-v-147" target="n8XnSLK7DUbdd084pU-v-122">
          <mxGeometry relative="1" as="geometry" />
        </mxCell>
        <mxCell id="n8XnSLK7DUbdd084pU-v-151" value="{&amp;nbsp;&lt;div&gt;book: book,&lt;/div&gt;&lt;div&gt;onClose: () =&amp;gt; setShowModal(false)&lt;br&gt;&lt;div&gt;&amp;nbsp;}&lt;/div&gt;&lt;/div&gt;" style="text;strokeColor=none;fillColor=none;html=1;align=center;verticalAlign=middle;whiteSpace=wrap;rounded=0;fontSize=16;" vertex="1" parent="1">
          <mxGeometry x="-66" y="3450" width="415" height="150" as="geometry" />
        </mxCell>
        <mxCell id="n8XnSLK7DUbdd084pU-v-153" value="" style="rounded=0;whiteSpace=wrap;html=1;fillColor=#eeeeee;strokeColor=#36393d;" vertex="1" parent="1">
          <mxGeometry x="-190.5" y="3700" width="730" height="890" as="geometry" />
        </mxCell>
        <mxCell id="n8XnSLK7DUbdd084pU-v-154" value="&lt;b&gt;BookModal&lt;/b&gt;" style="text;strokeColor=none;fillColor=none;html=1;align=center;verticalAlign=middle;whiteSpace=wrap;rounded=0;fontSize=16;" vertex="1" parent="1">
          <mxGeometry x="-194" y="3710" width="130.5" height="40" as="geometry" />
        </mxCell>
        <mxCell id="n8XnSLK7DUbdd084pU-v-155" value="{&amp;nbsp;&lt;div&gt;book: book,&lt;/div&gt;&lt;div&gt;onClose: () =&amp;gt; setShowModal(false)&lt;br&gt;&lt;div&gt;&amp;nbsp;}&lt;/div&gt;&lt;/div&gt;" style="text;strokeColor=none;fillColor=none;html=1;align=center;verticalAlign=middle;whiteSpace=wrap;rounded=0;fontSize=16;" vertex="1" parent="1">
          <mxGeometry x="140" y="3710" width="310" height="150" as="geometry" />
        </mxCell>
        <mxCell id="n8XnSLK7DUbdd084pU-v-157" style="edgeStyle=orthogonalEdgeStyle;curved=1;rounded=0;orthogonalLoop=1;jettySize=auto;html=1;exitX=1;exitY=0.5;exitDx=0;exitDy=0;entryX=0.839;entryY=1.021;entryDx=0;entryDy=0;entryPerimeter=0;fontSize=12;startSize=8;endSize=8;" edge="1" parent="1" source="n8XnSLK7DUbdd084pU-v-155" target="n8XnSLK7DUbdd084pU-v-122">
          <mxGeometry relative="1" as="geometry" />
        </mxCell>
        <mxCell id="n8XnSLK7DUbdd084pU-v-158" value="" style="rounded=0;whiteSpace=wrap;html=1;fillColor=#dae8fc;strokeColor=#6c8ebf;" vertex="1" parent="1">
          <mxGeometry x="-170.5" y="3840" width="695" height="730" as="geometry" />
        </mxCell>
        <mxCell id="n8XnSLK7DUbdd084pU-v-159" value="&lt;b&gt;div&lt;/b&gt;" style="text;strokeColor=none;fillColor=none;html=1;align=center;verticalAlign=middle;whiteSpace=wrap;rounded=0;fontSize=16;" vertex="1" parent="1">
          <mxGeometry x="-170.5" y="3840" width="60" height="30" as="geometry" />
        </mxCell>
        <mxCell id="n8XnSLK7DUbdd084pU-v-160" value="&lt;div&gt;&lt;br&gt;&lt;/div&gt;&lt;div&gt;{ onClick: onClose&amp;nbsp;&lt;span style=&quot;background-color: initial;&quot;&gt;&amp;nbsp;}&lt;/span&gt;&lt;/div&gt;" style="text;strokeColor=none;fillColor=none;html=1;align=center;verticalAlign=middle;whiteSpace=wrap;rounded=0;fontSize=16;" vertex="1" parent="1">
          <mxGeometry x="19.5" y="3825" width="170.5" height="60" as="geometry" />
        </mxCell>
        <mxCell id="n8XnSLK7DUbdd084pU-v-161" value="" style="rounded=0;whiteSpace=wrap;html=1;fillColor=#fff2cc;strokeColor=#d6b656;" vertex="1" parent="1">
          <mxGeometry x="-157" y="3900" width="667" height="650" as="geometry" />
        </mxCell>
        <mxCell id="n8XnSLK7DUbdd084pU-v-162" value="&lt;b&gt;div&lt;/b&gt;" style="text;html=1;align=center;verticalAlign=middle;whiteSpace=wrap;rounded=0;fontSize=16;" vertex="1" parent="1">
          <mxGeometry x="-157" y="3900" width="60" height="30" as="geometry" />
        </mxCell>
        <mxCell id="n8XnSLK7DUbdd084pU-v-163" value="&lt;div&gt;&lt;br&gt;&lt;/div&gt;&lt;div&gt;{ onClick: (event) =&amp;gt; event.stopPropagation()&lt;span style=&quot;background-color: initial;&quot;&gt;&amp;nbsp;}&lt;/span&gt;&lt;/div&gt;" style="text;strokeColor=none;fillColor=none;html=1;align=center;verticalAlign=middle;whiteSpace=wrap;rounded=0;fontSize=16;" vertex="1" parent="1">
          <mxGeometry x="19.5" y="3880" width="360.5" height="70" as="geometry" />
        </mxCell>
        <mxCell id="n8XnSLK7DUbdd084pU-v-164" value="" style="rounded=0;whiteSpace=wrap;html=1;" vertex="1" parent="1">
          <mxGeometry x="-142.5" y="3950" width="632.5" height="80" as="geometry" />
        </mxCell>
        <mxCell id="n8XnSLK7DUbdd084pU-v-165" value="&lt;b&gt;AiOutlineClose&lt;/b&gt;" style="text;html=1;align=center;verticalAlign=middle;whiteSpace=wrap;rounded=0;fontSize=16;" vertex="1" parent="1">
          <mxGeometry x="-142.5" y="3950" width="142.5" height="40" as="geometry" />
        </mxCell>
        <mxCell id="n8XnSLK7DUbdd084pU-v-166" value="&lt;div&gt;&lt;br&gt;&lt;/div&gt;&lt;div&gt;{ onClick: onClose&amp;nbsp;&lt;span style=&quot;background-color: initial;&quot;&gt;&amp;nbsp;}&lt;/span&gt;&lt;/div&gt;" style="text;strokeColor=none;fillColor=none;html=1;align=center;verticalAlign=middle;whiteSpace=wrap;rounded=0;fontSize=16;" vertex="1" parent="1">
          <mxGeometry x="56.25" y="3930" width="170.5" height="60" as="geometry" />
        </mxCell>
        <mxCell id="n8XnSLK7DUbdd084pU-v-167" value="&lt;font style=&quot;font-size: 16px;&quot;&gt;book.publishYear&lt;/font&gt;" style="rounded=0;whiteSpace=wrap;html=1;" vertex="1" parent="1">
          <mxGeometry x="-142.5" y="4040" width="632.5" height="70" as="geometry" />
        </mxCell>
        <mxCell id="n8XnSLK7DUbdd084pU-v-168" value="&lt;b&gt;h2&lt;/b&gt;" style="text;html=1;align=center;verticalAlign=middle;whiteSpace=wrap;rounded=0;fontSize=16;" vertex="1" parent="1">
          <mxGeometry x="-190" y="4040" width="142.5" height="40" as="geometry" />
        </mxCell>
        <mxCell id="n8XnSLK7DUbdd084pU-v-169" value="&lt;font style=&quot;font-size: 16px;&quot;&gt;book.id&lt;/font&gt;" style="rounded=0;whiteSpace=wrap;html=1;" vertex="1" parent="1">
          <mxGeometry x="-143" y="4122" width="632.5" height="70" as="geometry" />
        </mxCell>
        <mxCell id="n8XnSLK7DUbdd084pU-v-170" value="&lt;b&gt;h4&lt;/b&gt;" style="text;html=1;align=center;verticalAlign=middle;whiteSpace=wrap;rounded=0;fontSize=16;" vertex="1" parent="1">
          <mxGeometry x="-190.5" y="4122" width="142.5" height="40" as="geometry" />
        </mxCell>
        <mxCell id="n8XnSLK7DUbdd084pU-v-171" value="&lt;font style=&quot;font-size: 16px;&quot;&gt;book.title&lt;/font&gt;" style="rounded=0;whiteSpace=wrap;html=1;" vertex="1" parent="1">
          <mxGeometry x="-141.5" y="4210" width="632.5" height="70" as="geometry" />
        </mxCell>
        <mxCell id="n8XnSLK7DUbdd084pU-v-172" value="&lt;b&gt;h2&lt;/b&gt;" style="text;html=1;align=center;verticalAlign=middle;whiteSpace=wrap;rounded=0;fontSize=16;" vertex="1" parent="1">
          <mxGeometry x="-189" y="4210" width="142.5" height="40" as="geometry" />
        </mxCell>
        <mxCell id="n8XnSLK7DUbdd084pU-v-173" value="&lt;font style=&quot;font-size: 16px;&quot;&gt;book.author&lt;/font&gt;" style="rounded=0;whiteSpace=wrap;html=1;" vertex="1" parent="1">
          <mxGeometry x="-141.5" y="4300" width="632.5" height="70" as="geometry" />
        </mxCell>
        <mxCell id="n8XnSLK7DUbdd084pU-v-174" value="&lt;b&gt;h2&lt;/b&gt;" style="text;html=1;align=center;verticalAlign=middle;whiteSpace=wrap;rounded=0;fontSize=16;" vertex="1" parent="1">
          <mxGeometry x="-189" y="4300" width="142.5" height="40" as="geometry" />
        </mxCell>
        <mxCell id="n8XnSLK7DUbdd084pU-v-175" value="&lt;font style=&quot;font-size: 16px;&quot;&gt;anything you want to show&lt;/font&gt;" style="rounded=0;whiteSpace=wrap;html=1;" vertex="1" parent="1">
          <mxGeometry x="-141.5" y="4384" width="632.5" height="70" as="geometry" />
        </mxCell>
        <mxCell id="n8XnSLK7DUbdd084pU-v-176" value="&lt;b&gt;p&lt;/b&gt;" style="text;html=1;align=center;verticalAlign=middle;whiteSpace=wrap;rounded=0;fontSize=16;" vertex="1" parent="1">
          <mxGeometry x="-189" y="4380" width="142.5" height="40" as="geometry" />
        </mxCell>
        <mxCell id="n8XnSLK7DUbdd084pU-v-177" value="&lt;font style=&quot;font-size: 16px;&quot;&gt;anything you want to show&lt;/font&gt;" style="rounded=0;whiteSpace=wrap;html=1;" vertex="1" parent="1">
          <mxGeometry x="-142.5" y="4464" width="632.5" height="70" as="geometry" />
        </mxCell>
        <mxCell id="n8XnSLK7DUbdd084pU-v-178" value="&lt;b&gt;p&lt;/b&gt;" style="text;html=1;align=center;verticalAlign=middle;whiteSpace=wrap;rounded=0;fontSize=16;" vertex="1" parent="1">
          <mxGeometry x="-190" y="4460" width="142.5" height="40" as="geometry" />
        </mxCell>
      </root>
    </mxGraphModel>
  </diagram>
</mxfile>
